<?xml version="1.0" encoding="utf-8"?>
<svg version="1.1" id="Layer_1" xmlns="http://www.w3.org/2000/svg" xmlns:xlink="http://www.w3.org/1999/xlink" x="0px" y="0px"
	 viewBox="0 0 29 29" style="enable-background:new 0 0 29 29;" xml:space="preserve">
<style type="text/css">
	.st0{fill:#010101;}
	.st1{fill:#FFFFFF;}
</style>
<g>
	<path class="st0" d="M28.52,14.5c0-7.73-6.27-14-14-14s-14,6.27-14,14c0,6.99,5.12,12.78,11.81,13.83v-9.78H8.78V14.5h3.55v-3.08
		c0-3.51,2.09-5.45,5.29-5.45c1.53,0,3.13,0.27,3.13,0.27v3.45h-1.77c-1.74,0-2.28,1.08-2.28,2.19v2.63h3.88l-0.62,4.05h-3.26v9.78
		C23.4,27.28,28.52,21.49,28.52,14.5z"/>
	<path class="st1" d="M19.97,18.55l0.62-4.05h-3.88v-2.63c0-1.11,0.54-2.19,2.28-2.19h1.77V6.24c0,0-1.6-0.27-3.13-0.27
		c-3.2,0-5.29,1.94-5.29,5.45v3.08H8.78v4.05h3.55v9.78c0.71,0.11,1.44,0.17,2.19,0.17s1.47-0.06,2.19-0.17v-9.78H19.97z"/>
</g>
</svg>
