<svg width="26" height="26" viewBox="0 0 26 26" fill="none" xmlns="http://www.w3.org/2000/svg">
<path fill-rule="evenodd" clip-rule="evenodd" d="M12.5377 0.507812C5.61298 0.507812 0 6.18033 0 13.1768C0 20.1748 5.61298 25.8457 12.5377 25.8457C19.4617 25.8457 25.0754 20.1748 25.0754 13.1768C25.0754 6.18033 19.4617 0.507812 12.5377 0.507812Z" fill="#A59D95"/>
<path fill-rule="evenodd" clip-rule="evenodd" d="M17.1621 10.4708C17.004 9.69464 16.5757 9.15732 15.8133 8.91553C15.4842 8.81097 15.1436 8.79354 14.8037 8.77611C14.4365 8.75723 14.0693 8.74925 13.7028 8.7507C12.6206 8.75288 11.5384 8.72964 10.4562 8.78047C10.1142 8.79572 9.77575 8.83493 9.45094 8.95619C8.91201 9.15805 8.5369 9.52836 8.33211 10.0722C8.2315 10.3372 8.18192 10.6139 8.16324 10.8949C8.10288 11.8018 8.11869 12.7109 8.11941 13.6185C8.11941 13.9641 8.11366 14.3098 8.12084 14.6554C8.13234 15.1673 8.12084 15.6814 8.20564 16.1889C8.26815 16.5636 8.39319 16.9114 8.63751 17.2098C9.02051 17.6782 9.53574 17.8677 10.112 17.9309C10.5008 17.9737 10.8917 17.9831 11.2819 17.9846C12.4712 17.989 13.6597 18.0122 14.8482 17.9635C15.1127 17.9534 15.3742 17.9309 15.6315 17.8728C16.0813 17.7719 16.4679 17.5642 16.7575 17.1917C16.9501 16.9622 17.0565 16.6914 17.1319 16.406C17.2289 16.0437 17.2368 15.6705 17.2454 15.3002C17.2778 14.0121 17.2749 12.724 17.2462 11.4351C17.239 11.1127 17.2275 10.7889 17.1621 10.4708ZM18.2441 15.2457C18.234 15.6828 18.2168 16.1199 18.1212 16.549C17.9847 17.1648 17.708 17.6992 17.2488 18.1327C16.9363 18.4246 16.5734 18.63 16.1695 18.7644C15.8361 18.874 15.4933 18.9357 15.1441 18.9524C13.6724 19.0265 12.2001 19.0018 10.727 18.9844C10.5789 18.9829 10.4309 18.972 10.2836 18.9655C10.1241 18.959 9.96382 18.9372 9.80429 18.9125C9.4062 18.8508 9.0275 18.7288 8.67611 18.5356C8.41958 18.3955 8.19394 18.2089 7.99274 17.9903C7.74267 17.7166 7.55009 17.4087 7.41571 17.0609C7.26266 16.6652 7.19223 16.2542 7.16493 15.8331C7.12325 15.1847 7.12397 14.5348 7.12109 13.8864C7.12181 13.2692 7.12109 12.6527 7.12612 12.0355C7.13115 11.5912 7.13834 11.1461 7.18074 10.7039C7.26912 9.81002 7.59249 9.03381 8.30676 8.45946C8.72641 8.12255 9.21002 7.93666 9.73243 7.84663C10.2929 7.75005 10.8606 7.75078 11.4261 7.74642C12.4616 7.73916 13.4978 7.729 14.5333 7.75731C14.958 7.76893 15.3834 7.78055 15.8009 7.87494C16.2471 7.97515 16.6661 8.13997 17.0318 8.42533C17.5104 8.79928 17.841 9.27488 18.0299 9.85794C18.2031 10.3909 18.2319 10.9406 18.2448 11.4917C18.2728 12.7435 18.2728 13.9946 18.2441 15.2457ZM15.6682 11.0442C15.2967 11.0471 14.997 10.7479 14.9949 10.3718C14.992 10.0066 15.2909 9.69868 15.6509 9.69723C16.0239 9.69505 16.3257 9.99275 16.3271 10.3652C16.3293 10.7363 16.0332 11.0413 15.6682 11.0442ZM12.1997 11.5551C11.3676 11.7817 10.7877 12.584 10.833 13.4546C10.8495 13.8344 10.9695 14.1771 11.1915 14.4835C11.7678 15.2815 12.8673 15.4899 13.6915 14.9584C13.8172 14.8771 13.9243 14.7761 14.03 14.6687C14.1183 14.5794 14.1988 14.4864 14.2621 14.3775C14.5236 13.9883 14.5955 13.549 14.5315 13.0974C14.3756 11.9806 13.2898 11.2596 12.1997 11.5551ZM15.5315 13.6952C15.4791 14.1425 15.3325 14.5564 15.0939 14.9362C14.8819 15.2578 14.6247 15.5345 14.3071 15.7508C13.9858 15.9709 13.6352 16.1241 13.2529 16.201C12.6486 16.3223 12.0679 16.2468 11.506 15.9977C11.1352 15.8336 10.8291 15.5853 10.556 15.2883C10.2981 15.0073 10.1206 14.6798 9.99338 14.3219C9.88703 14.0227 9.84176 13.7127 9.83242 13.3961C9.83817 13.2559 9.82811 13.1136 9.85254 12.9764C9.8899 12.7738 9.92943 12.5705 10.0056 12.3774C10.4109 11.363 11.1345 10.7255 12.2059 10.5287C13.6395 10.2666 14.9811 11.1444 15.4101 12.4768C15.5373 12.874 15.5804 13.2814 15.5315 13.6952Z" fill="white"/>
</svg>
