<svg width="26" height="26" viewBox="0 0 26 26" fill="none" xmlns="http://www.w3.org/2000/svg">
<path d="M13 26C20.1797 26 26 20.1797 26 13C26 5.8203 20.1797 0 13 0C5.8203 0 0 5.8203 0 13C0 20.1797 5.8203 26 13 26Z" fill="#A59D95"/>
<path d="M8.69531 14.0415L10.1916 18.0979L16.8289 8.87817L8.69531 14.0415Z" fill="#EFEFEF"/>
<path d="M10.3534 14.9424L10.2109 18.1392L13.7132 15.1672L10.3534 14.9424Z" fill="#DADADA"/>
<path d="M18.4527 7.32029L5.37032 12.2965C5.289 12.3273 5.21918 12.3825 5.17039 12.4544C5.1216 12.5264 5.09622 12.6117 5.09772 12.6986C5.09922 12.7855 5.12753 12.8699 5.17878 12.9401C5.23003 13.0104 5.30172 13.0631 5.38405 13.091L8.75931 14.227L16.4416 9.2696L10.3569 14.9442L15.0929 18.5477C15.2062 18.6349 15.3396 18.6924 15.4808 18.715C15.622 18.7376 15.7666 18.7245 15.9015 18.6769C16.0364 18.6293 16.1572 18.5488 16.2531 18.4426C16.3489 18.3364 16.4166 18.208 16.4502 18.069L19.0121 7.82649C19.033 7.75106 19.0325 7.67132 19.0106 7.59616C18.9888 7.521 18.9465 7.45339 18.8885 7.40087C18.8305 7.34836 18.759 7.31302 18.682 7.29879C18.6051 7.28455 18.5257 7.292 18.4527 7.32029Z" fill="white"/>
</svg>
