<svg width="33" height="33" viewBox="0 0 33 33" fill="none" xmlns="http://www.w3.org/2000/svg">
<path d="M16.0011 32.0021C24.8382 32.0021 32.0021 24.8382 32.0021 16.0011C32.0021 7.16392 24.8382 0 16.0011 0C7.16392 0 0 7.16392 0 16.0011C0 24.8382 7.16392 32.0021 16.0011 32.0021Z" fill="black"/>
<path d="M12.7466 18.3918L12.5713 22.3266L16.882 18.6685L12.7466 18.3918Z" fill="white"/>
<path d="M22.7105 9.0101L6.60807 15.1351C6.50798 15.173 6.42204 15.2409 6.36198 15.3295C6.30193 15.418 6.27069 15.523 6.27254 15.63C6.27439 15.737 6.30923 15.8408 6.37231 15.9273C6.43539 16.0137 6.52363 16.0786 6.62496 16.113L10.7794 17.5112L20.2352 11.4094L12.7457 18.394L18.5751 22.8294C18.7146 22.9367 18.8787 23.0075 19.0525 23.0353C19.2264 23.0631 19.4044 23.0469 19.5704 22.9884C19.7364 22.9298 19.8851 22.8307 20.0031 22.7C20.121 22.5693 20.2044 22.4112 20.2457 22.2401L23.399 9.63316C23.4247 9.54032 23.4241 9.44217 23.3973 9.34966C23.3704 9.25715 23.3183 9.17393 23.2469 9.10929C23.1755 9.04466 23.0875 9.00115 22.9928 8.98364C22.8981 8.96612 22.8003 8.97528 22.7105 9.0101Z" fill="white"/>
</svg>
