<svg width="32" height="32" viewBox="0 0 32 32" fill="none" xmlns="http://www.w3.org/2000/svg">
<circle cx="16" cy="16" r="16" fill="black"/>
<path d="M23.886 11.5137C22.8588 11.5137 21.911 11.1734 21.1498 10.5993C20.2769 9.94116 19.6497 8.97577 19.4282 7.86308C19.3734 7.58816 19.3439 7.30444 19.341 7.0137H16.4065V15.0321L16.403 19.4242C16.403 20.5984 15.6384 21.5941 14.5784 21.9442C14.2708 22.0458 13.9386 22.094 13.5926 22.075C13.1511 22.0507 12.7373 21.9175 12.3776 21.7023C11.6123 21.2446 11.0934 20.4142 11.0793 19.4643C11.0572 17.9796 12.2574 16.7692 13.741 16.7692C14.0339 16.7692 14.3151 16.817 14.5784 16.9039V14.7122V13.9244C14.3007 13.8832 14.018 13.8618 13.7322 13.8618C12.1083 13.8618 10.5896 14.5368 9.50397 15.7528C8.68342 16.6718 8.19123 17.8443 8.1153 19.0737C8.0158 20.6888 8.60678 22.2241 9.75287 23.3568C9.92127 23.5231 10.0981 23.6774 10.283 23.8198C11.2656 24.576 12.4669 24.9859 13.7322 24.9859C14.018 24.9859 14.3007 24.9648 14.5784 24.9237C15.7604 24.7486 16.8509 24.2076 17.7115 23.3568C18.769 22.3116 19.3533 20.924 19.3597 19.4471L19.3446 12.8883C19.849 13.2775 20.4006 13.5995 20.9927 13.8495C21.9134 14.238 22.8897 14.4348 23.8945 14.4345V12.3037V11.513C23.8952 11.5137 23.8867 11.5137 23.886 11.5137V11.5137Z" fill="white"/>
</svg>
