<svg xmlns="http://www.w3.org/2000/svg" width="57" height="49" fill="none"><path d="M28.5 13.063c1.906-7.525 9.106-11.368 24.781-11.438a1.9 1.9 0 0 1 1.907 1.906v34.313a1.906 1.906 0 0 1-1.907 1.906c-15.25 0-21.141 3.075-24.781 7.625-3.618-4.527-9.531-7.625-24.781-7.625-1.177 0-1.906-.96-1.906-2.136V3.53a1.9 1.9 0 0 1 1.906-1.906c15.675.07 22.875 3.913 24.781 11.438Z" stroke="url(#a)" stroke-width="2" stroke-linecap="round" stroke-linejoin="round" style="mix-blend-mode:multiply"/><path d="M28.5 13.063v34.312" stroke="url(#b)" stroke-width="2" stroke-linecap="round" stroke-linejoin="round" style="mix-blend-mode:multiply"/><defs><linearGradient id="a" x1="-6.038" y1="8.193" x2="43.994" y2="39.777" gradientUnits="userSpaceOnUse"><stop stop-color="#003575"/><stop offset="1" stop-color="#BD60A5"/></linearGradient><linearGradient id="b" x1="28.353" y1="17.989" x2="29.663" y2="18.009" gradientUnits="userSpaceOnUse"><stop stop-color="#003575"/><stop offset="1" stop-color="#BD60A5"/></linearGradient></defs></svg>