
<svg xmlns="http://www.w3.org/2000/svg" width="49" height="49" fill="none"><path d="M42.313 4.906H6.687a5.344 5.344 0 0 0-5.343 5.344v32.063a5.344 5.344 0 0 0 5.343 5.343h35.626a5.344 5.344 0 0 0 5.343-5.343V10.25a5.344 5.344 0 0 0-5.343-5.344Z" stroke="url(#a)" stroke-width="2" stroke-linejoin="round" style="mix-blend-mode:multiply"/><path d="M40.773 4H8.524C4.376 4 1 7.428 1 11.64v6.913h1.82c0-1.819 1.818-3.638 3.637-3.638H42.84c1.82 0 3.639 1.819 3.639 3.638h1.819V11.64c0-4.212-3.376-7.64-7.525-7.64Z" fill="url(#b)" style="mix-blend-mode:multiply"/><path d="M28.953 24.5a2.672 2.672 0 1 0 0-5.344 2.672 2.672 0 0 0 0 5.344Z" fill="url(#c)" style="mix-blend-mode:multiply"/><path d="M37.86 24.5a2.672 2.672 0 1 0 0-5.344 2.672 2.672 0 0 0 0 5.344Z" fill="url(#d)" style="mix-blend-mode:multiply"/><path d="M28.953 33.406a2.672 2.672 0 1 0 0-5.343 2.672 2.672 0 0 0 0 5.343Z" fill="url(#e)" style="mix-blend-mode:multiply"/><path d="M37.86 33.406a2.672 2.672 0 1 0 0-5.343 2.672 2.672 0 0 0 0 5.343Z" fill="url(#f)" style="mix-blend-mode:multiply"/><path d="M11.14 33.406a2.672 2.672 0 1 0 0-5.343 2.672 2.672 0 0 0 0 5.343Z" fill="url(#g)" style="mix-blend-mode:multiply"/><path d="M20.047 33.406a2.672 2.672 0 1 0 0-5.344 2.672 2.672 0 0 0 0 5.344Z" fill="url(#h)" style="mix-blend-mode:multiply"/><path d="M11.14 42.313a2.672 2.672 0 1 0 0-5.344 2.672 2.672 0 0 0 0 5.343Z" fill="url(#i)" style="mix-blend-mode:multiply"/><path d="M20.047 42.313a2.672 2.672 0 1 0 0-5.344 2.672 2.672 0 0 0 0 5.343Z" fill="url(#j)" style="mix-blend-mode:multiply"/><path d="M28.953 42.313a2.672 2.672 0 1 0 0-5.344 2.672 2.672 0 0 0 0 5.343Z" fill="url(#k)" style="mix-blend-mode:multiply"/><path d="M10.25 1.344v3.562" stroke="url(#l)" stroke-width="2" stroke-linecap="round" stroke-linejoin="round" style="mix-blend-mode:multiply"/><path d="M38.75 1.344v3.562" stroke="url(#m)" stroke-width="2" stroke-linecap="round" stroke-linejoin="round" style="mix-blend-mode:multiply"/><defs><linearGradient id="a" x1="-5.468" y1="11.044" x2="39.718" y2="37.531" gradientUnits="userSpaceOnUse"><stop stop-color="#003575"/><stop offset="1" stop-color="#BD60A5"/></linearGradient><linearGradient id="b" x1="-5.957" y1="6.089" x2="9.194" y2="32.732" gradientUnits="userSpaceOnUse"><stop stop-color="#003575"/><stop offset="1" stop-color="#BD60A5"/></linearGradient><linearGradient id="c" x1="25.495" y1="19.923" x2="30.914" y2="22.855" gradientUnits="userSpaceOnUse"><stop stop-color="#003575"/><stop offset="1" stop-color="#BD60A5"/></linearGradient><linearGradient id="d" x1="34.401" y1="19.923" x2="39.82" y2="22.855" gradientUnits="userSpaceOnUse"><stop stop-color="#003575"/><stop offset="1" stop-color="#BD60A5"/></linearGradient><linearGradient id="e" x1="25.495" y1="28.83" x2="30.914" y2="31.762" gradientUnits="userSpaceOnUse"><stop stop-color="#003575"/><stop offset="1" stop-color="#BD60A5"/></linearGradient><linearGradient id="f" x1="34.401" y1="28.83" x2="39.82" y2="31.762" gradientUnits="userSpaceOnUse"><stop stop-color="#003575"/><stop offset="1" stop-color="#BD60A5"/></linearGradient><linearGradient id="g" x1="7.683" y1="28.83" x2="13.101" y2="31.762" gradientUnits="userSpaceOnUse"><stop stop-color="#003575"/><stop offset="1" stop-color="#BD60A5"/></linearGradient><linearGradient id="h" x1="16.589" y1="28.83" x2="22.008" y2="31.762" gradientUnits="userSpaceOnUse"><stop stop-color="#003575"/><stop offset="1" stop-color="#BD60A5"/></linearGradient><linearGradient id="i" x1="7.683" y1="37.736" x2="13.101" y2="40.668" gradientUnits="userSpaceOnUse"><stop stop-color="#003575"/><stop offset="1" stop-color="#BD60A5"/></linearGradient><linearGradient id="j" x1="16.589" y1="37.736" x2="22.008" y2="40.668" gradientUnits="userSpaceOnUse"><stop stop-color="#003575"/><stop offset="1" stop-color="#BD60A5"/></linearGradient><linearGradient id="k" x1="25.495" y1="37.736" x2="30.914" y2="40.668" gradientUnits="userSpaceOnUse"><stop stop-color="#003575"/><stop offset="1" stop-color="#BD60A5"/></linearGradient><linearGradient id="l" x1="10.103" y1="1.855" x2="11.384" y2="2.05" gradientUnits="userSpaceOnUse"><stop stop-color="#003575"/><stop offset="1" stop-color="#BD60A5"/></linearGradient><linearGradient id="m" x1="38.603" y1="1.855" x2="39.884" y2="2.05" gradientUnits="userSpaceOnUse"><stop stop-color="#003575"/><stop offset="1" stop-color="#BD60A5"/></linearGradient></defs></svg>