<svg xmlns="http://www.w3.org/2000/svg" width="47" height="48" fill="none"><path d="M.98 45c.047-.245.147-.477.293-.677.145-.2.333-.366.549-.483l3.143-2 13.17-8.43.47-.3-10.77-10.35M.98 45V16.2m0 28.8c-.147 1 .793 2 2.32 2h40.4c1.528 0 2.468-1 2.322-2a1.7 1.7 0 0 0-.28-.66 1.656 1.656 0 0 0-.523-.48l-3.144-2-13.678-8.73-.431-.28a7.138 7.138 0 0 0-1.959-.86 5.562 5.562 0 0 0-4.993 0 7.14 7.14 0 0 0-1.959.86l-.43.28-13.68 8.73-3.143 2c-.21.117-.392.28-.534.477-.142.197-.24.423-.288.663Zm0-28.8 6.854 6.56M.98 16.2l6.854-4.68v11.24m38.188-6.56v28.77a1.7 1.7 0 0 0-.288-.663 1.657 1.657 0 0 0-.535-.477L28.827 33.41l-.47-.3 10.81-10.35m6.855-6.56-6.855 6.56m6.855-6.56-6.855-4.68v11.24m-22.52-11.598h13.708m-16.646 5.491h19.583m-19.583 5.88h19.583M31.011 5.93H15.99l6.971-4.76a.965.965 0 0 1 1.077 0l6.972 4.76Zm8.156.001v16.83l-10.77 10.35-.431-.28a7.138 7.138 0 0 0-1.959-.86 5.562 5.562 0 0 0-4.993 0 7.14 7.14 0 0 0-1.959.86l-.43.28-10.79-10.35V5.931h31.332Z" stroke="url(#a)" stroke-width="2" stroke-linecap="round" stroke-linejoin="round" style="mix-blend-mode:multiply"/><defs><linearGradient id="a" x1="-5.664" y1="7.608" x2="40.455" y2="32.062" gradientUnits="userSpaceOnUse"><stop stop-color="#003575"/><stop offset="1" stop-color="#BD60A5"/></linearGradient></defs></svg>