<svg width="20" height="20" viewBox="0 0 20 20" fill="none" xmlns="http://www.w3.org/2000/svg">
<path fill-rule="evenodd" clip-rule="evenodd" d="M8.34127 0.216064C3.79035 0.216064 0.0908203 3.91559 0.0908203 8.46651C0.0908203 13.0174 3.79035 16.7165 8.34127 16.7165C10.1215 16.7165 11.7696 16.1488 13.1184 15.1871L16.9959 19.0646C17.5289 19.5976 18.4072 19.5976 18.9402 19.0646C19.4732 18.5316 19.4732 17.6532 18.9402 17.1202L15.0618 13.2419C16.0223 11.8931 16.5895 10.2457 16.5895 8.46651C16.5895 3.91559 12.8922 0.216064 8.34127 0.216064ZM8.34127 1.13273C12.3968 1.13273 15.6746 4.41099 15.6746 8.46651C15.6746 12.522 12.3968 15.7998 8.34127 15.7998C4.28575 15.7998 1.00749 12.522 1.00749 8.46651C1.00749 4.41099 4.28575 1.13273 8.34127 1.13273ZM14.4871 13.9634L18.2921 17.7683C18.4773 17.9535 18.4773 18.2313 18.2921 18.4165C18.1069 18.6016 17.8292 18.6016 17.644 18.4165L13.8395 14.6119C14.0673 14.4079 14.2832 14.1913 14.4871 13.9634Z" fill="#7E7872"/>
</svg>
