<svg width="349" height="250" viewBox="0 0 349 250" fill="none" xmlns="http://www.w3.org/2000/svg">
<g clip-path="url(#clip0)">
<path d="M348 266H0C1.00013 225.667 3.00038 144.1 3.00038 140.5C4.00038 161.5 8 198 37.5 218C61.1 234 103.667 231.333 122 228C133.167 226.667 158.1 224 168.5 224C181.5 224 200.5 227 221.5 224C242.5 221 253 222.5 268.5 216C284 209.5 297 202.5 307 192C317 181.5 332.5 163.5 336 155.5C338.8 149.1 345.167 133.167 348 126V266Z" fill="#2F3940"/>
</g>
<defs>
<clipPath id="clip0">
<rect width="349" height="250" fill="white"/>
</clipPath>
</defs>
</svg>
